<svg width="1280" height="1795" viewBox="0 0 1280 1795" fill="none" xmlns="http://www.w3.org/2000/svg">
<mask id="mask0_137_315" style="mask-type:alpha" maskUnits="userSpaceOnUse" x="0" y="0" width="1280" height="1795">
<rect width="1280" height="1795" fill="#140080"/>
</mask>
<g mask="url(#mask0_137_315)">
<g opacity="0.5">
<path d="M704.395 765.432L711.759 764.087L712.756 756.668L716.31 763.256L723.674 761.911L718.507 767.327L722.062 773.915L715.314 770.675L710.147 776.091L711.143 768.672L704.395 765.432Z" fill="#7F67FF" fill-opacity="0.4"/>
<path opacity="0.4" d="M584.75 534.075L589.085 524.429L581.251 517.324L591.765 518.467L596.1 508.821L598.262 519.173L608.776 520.315L599.599 525.571L601.761 535.923L593.927 528.819L584.75 534.075Z" fill="#7F67FF" fill-opacity="0.4"/>
<path opacity="0.2" d="M780.506 790.576L782.965 793.165L786.187 791.626L784.485 794.764L786.944 797.353L783.433 796.704L781.731 799.843L781.263 796.304L777.752 795.655L780.974 794.116L780.506 790.576Z" fill="#7F67FF" fill-opacity="0.4"/>
<path opacity="0.8" d="M766.934 722.921L761.637 719.485L756.733 723.461L758.363 717.362L753.067 713.926L759.371 713.592L761.002 707.493L763.268 713.386L769.572 713.052L764.668 717.028L766.934 722.921Z" fill="#7F67FF" fill-opacity="0.4"/>
<path opacity="0.1" d="M849.852 861.066L852.753 863.148L855.629 861.033L854.545 864.435L857.446 866.517L853.875 866.537L852.791 869.939L851.668 866.55L848.098 866.57L850.975 864.455L849.852 861.066Z" fill="#7F67FF" fill-opacity="0.4"/>
<path opacity="0.4" d="M877.789 953.243L873.638 946.084L865.547 947.819L871.073 941.66L866.923 934.501L874.488 937.853L880.015 931.693L879.164 939.925L886.73 943.277L878.639 945.012L877.789 953.243Z" fill="#7F67FF" fill-opacity="0.4"/>
<path opacity="0.2" d="M957.364 615.109L960.576 607.483L954.315 602.072L962.561 602.769L965.772 595.143L967.657 603.201L975.903 603.898L968.822 608.181L970.706 616.238L964.445 610.827L957.364 615.109Z" fill="#7F67FF" fill-opacity="0.4"/>
<path opacity="0.4" d="M661.997 600.517L664.682 610.511L675.016 611.046L666.341 616.688L669.026 626.682L660.98 620.175L652.305 625.817L656.007 616.153L647.96 609.646L658.295 610.181L661.997 600.517Z" fill="#7F67FF" fill-opacity="0.4"/>
<path opacity="0.4" d="M574.373 826.599L580.165 823.134L578.66 816.556L583.744 820.993L589.536 817.529L586.886 823.736L591.971 828.174L585.249 827.572L582.6 833.779L581.095 827.2L574.373 826.599Z" fill="#7F67FF" fill-opacity="0.4"/>
<path opacity="0.8" d="M590.332 640.097L600.297 654.707L617.272 649.745L606.456 663.737L616.421 678.348L599.771 672.385L588.955 686.377L589.481 668.699L572.831 662.737L589.806 657.774L590.332 640.097Z" fill="#7F67FF" fill-opacity="0.4"/>
<path opacity="0.6" d="M710.596 800.723L723.72 812.578L739.05 803.76L731.831 819.905L744.955 831.76L727.369 829.883L720.15 846.028L716.501 828.723L698.915 826.846L714.246 818.028L710.596 800.723Z" fill="#7F67FF" fill-opacity="0.4"/>
<path opacity="0.6" d="M616.394 612.071L616.341 618.041L622.003 619.937L616.308 621.731L616.254 627.702L612.788 622.84L607.093 624.634L610.646 619.835L607.18 614.974L612.842 616.87L616.394 612.071Z" fill="#7F67FF" fill-opacity="0.4"/>
<path opacity="0.2" d="M664.632 856.844L673.882 860.039L679.779 852.229L679.599 862.014L688.849 865.21L679.487 868.062L679.306 877.847L673.701 869.824L664.339 872.676L670.237 864.866L664.632 856.844Z" fill="#7F67FF" fill-opacity="0.4"/>
<path d="M502.545 670.06L509.909 668.716L510.906 661.296L514.46 667.884L521.824 666.54L516.657 671.956L520.212 678.544L513.464 675.304L508.296 680.72L509.293 673.301L502.545 670.06Z" fill="#5A78FF" fill-opacity="0.8"/>
<path d="M793.163 484.952L798.67 492.775L807.812 489.955L802.073 497.61L807.58 505.433L798.527 502.341L792.788 509.996L792.931 500.43L783.878 497.338L793.02 494.518L793.163 484.952Z" fill="#9480FF" fill-opacity="0.6"/>
<path opacity="0.8" d="M947.653 397.442L948.427 403.847L954.759 405.091L948.906 407.806L949.679 414.212L945.288 409.484L939.435 412.2L942.574 406.563L938.183 401.835L944.514 403.079L947.653 397.442Z" fill="#9480FF" fill-opacity="0.6"/>
<path opacity="0.6" d="M959.63 469.663L961.89 475.706L968.336 475.425L963.287 479.441L965.546 485.485L960.166 481.924L955.116 485.94L956.841 479.723L951.46 476.162L957.906 475.88L959.63 469.663Z" fill="#9480FF" fill-opacity="0.6"/>
<path opacity="0.4" d="M1031.79 346.838L1034.85 350.22L1039.01 348.352L1036.74 352.31L1039.81 355.692L1035.34 354.757L1033.07 358.716L1032.58 354.179L1028.12 353.244L1032.28 351.375L1031.79 346.838Z" fill="#9480FF" fill-opacity="0.6"/>
<path opacity="0.4" d="M844.857 399.421L847.226 403.321L851.667 402.274L848.689 405.732L851.058 409.632L846.849 407.869L843.872 411.327L844.248 406.779L840.039 405.016L844.481 403.969L844.857 399.421Z" fill="#9480FF" fill-opacity="0.6"/>
<path opacity="0.4" d="M763.338 603.641L763.866 608.173L768.34 609.071L764.193 610.974L764.722 615.507L761.63 612.151L757.483 614.054L759.719 610.077L756.627 606.721L761.101 607.618L763.338 603.641Z" fill="#9480FF" fill-opacity="0.6"/>
<path opacity="0.2" d="M804.78 586.732L803.095 590.973L806.608 593.886L802.054 593.593L800.369 597.834L799.239 593.413L794.686 593.121L798.541 590.68L797.412 586.259L800.925 589.172L804.78 586.732Z" fill="#9480FF" fill-opacity="0.6"/>
<path d="M1027.07 504.692L1022.96 493.455L1011 493.889L1020.42 486.511L1016.31 475.274L1026.24 481.951L1035.66 474.572L1032.38 486.077L1042.3 492.753L1030.35 493.187L1027.07 504.692Z" fill="#9480FF" fill-opacity="0.6"/>
<path opacity="0.8" d="M876.001 534.727L877.149 526.74L869.907 523.181L877.858 521.804L879.005 513.818L882.771 520.953L890.722 519.577L885.099 525.363L888.865 532.499L881.624 528.94L876.001 534.727Z" fill="#9480FF" fill-opacity="0.6"/>
<path opacity="0.6" d="M980.877 308.414L980.113 300.382L972.237 298.627L979.64 295.417L978.876 287.385L984.216 293.434L991.619 290.225L987.516 297.173L992.855 303.222L984.98 301.466L980.877 308.414Z" fill="#9480FF" fill-opacity="0.6"/>
<path opacity="0.4" d="M724.965 594.205L722.365 589.125L716.731 590.028L720.758 585.986L718.158 580.906L723.247 583.487L727.275 579.445L726.393 585.083L731.482 587.664L725.847 588.567L724.965 594.205Z" fill="#9480FF" fill-opacity="0.6"/>
<path opacity="0.4" d="M967.784 591.462L966.192 585.983L960.488 585.804L965.207 582.596L963.615 577.116L968.124 580.614L972.844 577.406L970.911 582.775L975.42 586.272L969.717 586.093L967.784 591.462Z" fill="#9480FF" fill-opacity="0.6"/>
<path opacity="0.2" d="M1077.06 378.3L1080.47 373.727L1077.17 369.067L1082.58 370.9L1085.99 366.327L1085.92 372.033L1091.32 373.866L1085.87 375.559L1085.8 381.265L1082.51 376.606L1077.06 378.3Z" fill="#9480FF" fill-opacity="0.6"/>
<path opacity="0.1" d="M760.163 704.967L759.302 709.448L763.297 711.652L758.769 712.217L757.908 716.698L755.971 712.567L751.443 713.132L754.774 710.013L752.837 705.881L756.833 708.085L760.163 704.967Z" fill="#9480FF" fill-opacity="0.6"/>
<path d="M897.821 817.096L909.317 798.136L894.837 781.344L916.421 786.418L927.917 767.459L929.761 789.554L951.345 794.629L930.901 803.21L932.745 825.306L918.265 808.514L897.821 817.096Z" fill="#9480FF" fill-opacity="0.6"/>
<path opacity="0.8" d="M568.5 570.346L581.383 562.753L578.142 548.154L589.345 558.06L602.227 550.466L596.268 564.182L607.471 574.087L592.585 572.658L586.626 586.373L583.386 571.775L568.5 570.346Z" fill="#9480FF" fill-opacity="0.3"/>
<path opacity="0.6" d="M710.725 477.829L721.459 467.417L714.874 453.991L728.093 460.982L738.827 450.57L736.263 465.303L749.482 472.294L734.678 474.408L732.115 489.14L725.529 475.715L710.725 477.829Z" fill="#9480FF" fill-opacity="0.6"/>
<path opacity="0.4" d="M382.899 438.704L387.235 429.057L379.4 421.953L389.914 423.096L394.25 413.449L396.412 423.802L406.926 424.944L397.749 430.2L399.911 440.552L392.077 433.448L382.899 438.704Z" fill="#9480FF" fill-opacity="0.6"/>
<path opacity="0.4" d="M668.19 786.78L674.272 778.128L667.922 769.67L678.03 772.781L684.112 764.128L684.277 774.703L694.385 777.813L684.38 781.238L684.545 791.813L678.196 783.355L668.19 786.78Z" fill="#9480FF" fill-opacity="0.6"/>
<path opacity="0.2" d="M1103.14 697.886L1113.71 697.525L1116.64 687.361L1120.25 697.302L1130.82 696.941L1122.48 703.445L1126.09 713.386L1117.32 707.466L1108.98 713.97L1111.91 703.806L1103.14 697.886Z" fill="#9480FF" fill-opacity="0.6"/>
<path d="M722.464 302.1L702.42 321.258L714.447 346.241L690.033 333.099L669.989 352.257L674.943 324.976L650.529 311.834L678.006 308.116L682.96 280.834L694.987 305.818L722.464 302.1Z" fill="#9480FF" fill-opacity="0.6"/>
<path opacity="0.8" d="M926.562 594.966L908.538 599.948L907.707 618.63L897.398 603.028L879.374 608.01L891.027 593.385L880.719 577.782L898.23 584.346L909.883 569.721L909.052 588.402L926.562 594.966Z" fill="#9480FF" fill-opacity="0.3"/>
<path opacity="0.6" d="M263.026 731.088L246.681 740.172L250.269 758.525L236.578 745.787L220.233 754.871L228.117 737.914L214.426 725.176L232.99 727.434L240.874 710.477L244.463 728.83L263.026 731.088Z" fill="#9480FF" fill-opacity="0.6"/>
<path opacity="0.4" d="M1193.15 860.421L1184.78 870.66L1191.93 881.785L1179.61 876.988L1171.24 887.228L1171.99 874.024L1159.66 869.227L1172.46 865.863L1173.21 852.66L1180.36 863.784L1193.15 860.421Z" fill="#9480FF" fill-opacity="0.6"/>
<path opacity="0.4" d="M961.775 347.377L951.619 355.849L956.538 368.126L945.343 361.084L935.187 369.556L938.424 356.733L927.229 349.692L940.424 348.808L943.661 335.985L948.58 348.261L961.775 347.377Z" fill="#9480FF" fill-opacity="0.6"/>
<path opacity="0.4" d="M341.308 201.882L328.547 205.353L327.904 218.563L320.659 207.498L307.898 210.97L316.182 200.66L308.937 189.596L321.302 194.289L329.586 183.979L328.943 197.189L341.308 201.882Z" fill="#9480FF" fill-opacity="0.6"/>
<path opacity="0.2" d="M407.654 313.358L394.773 310.359L387.94 321.682L386.812 308.505L373.932 305.506L386.115 300.361L384.987 287.184L393.645 297.182L405.829 292.037L398.996 303.361L407.654 313.358Z" fill="#9480FF" fill-opacity="0.6"/>
<path opacity="0.8" d="M491.075 531.605L495.879 533.157L498.84 529.068L498.848 534.116L503.653 535.669L498.854 537.237L498.862 542.285L495.888 538.206L491.089 539.774L494.05 535.685L491.075 531.605Z" fill="#5A78FF" fill-opacity="0.8"/>
<path opacity="0.6" d="M546.307 546.795L551.341 547.173L553.256 542.502L554.453 547.406L559.487 547.784L555.192 550.438L556.388 555.343L552.537 552.078L548.242 554.731L550.158 550.06L546.307 546.795Z" fill="#5A78FF" fill-opacity="0.8"/>
<path opacity="0.4" d="M482.737 455.236L486.144 454.17L486.183 450.6L488.25 453.511L491.658 452.445L489.528 455.31L491.595 458.221L488.211 457.081L486.081 459.947L486.12 456.377L482.737 455.236Z" fill="#5A78FF" fill-opacity="0.8"/>
<path opacity="0.4" d="M458.751 605.275L462.299 604.872L463.012 601.374L464.491 604.623L468.039 604.221L465.406 606.632L466.885 609.881L463.778 608.122L461.145 610.533L461.858 607.034L458.751 605.275Z" fill="#5A78FF" fill-opacity="0.8"/>
<path opacity="0.4" d="M577.068 730.192L580.461 731.303L582.566 728.42L582.558 731.99L585.951 733.102L582.552 734.197L582.543 737.767L580.452 734.874L577.053 735.969L579.159 733.085L577.068 730.192Z" fill="#5A78FF" fill-opacity="0.8"/>
<path opacity="0.2" d="M578.655 695.205L581.115 697.793L584.336 696.254L582.635 699.393L585.094 701.981L581.583 701.333L579.881 704.472L579.413 700.932L575.902 700.284L579.123 698.744L578.655 695.205Z" fill="#5A78FF" fill-opacity="0.8"/>
<path d="M593.317 510.386L583.988 509.617L580.373 518.252L578.222 509.141L568.892 508.372L576.892 503.511L574.741 494.4L581.837 500.506L589.837 495.645L586.222 504.28L593.317 510.386Z" fill="#5A78FF" fill-opacity="0.8"/>
<path opacity="0.8" d="M565.083 627.549L559.787 624.114L554.882 628.09L556.513 621.99L551.216 618.555L557.521 618.221L559.152 612.122L561.417 618.015L567.722 617.681L562.818 621.657L565.083 627.549Z" fill="#5A78FF" fill-opacity="0.8"/>
<path opacity="0.6" d="M438.737 478.792L432.78 476.7L428.95 481.718L429.099 475.406L423.143 473.314L429.192 471.506L429.341 465.194L432.93 470.388L438.979 468.58L435.148 473.598L438.737 478.792Z" fill="#5A78FF" fill-opacity="0.8"/>
<path opacity="0.4" d="M557.774 754.353L553.312 754.533L552.105 758.832L550.555 754.644L546.094 754.825L549.597 752.056L548.047 747.869L551.762 750.346L555.266 747.577L554.059 751.876L557.774 754.353Z" fill="#5A78FF" fill-opacity="0.8"/>
<path opacity="0.4" d="M635.501 580.969L631.086 580.302L629.088 584.295L628.358 579.89L623.943 579.223L627.907 577.167L627.177 572.763L630.356 575.897L634.32 573.841L632.322 577.834L635.501 580.969Z" fill="#5A78FF" fill-opacity="0.8"/>
<path opacity="0.4" d="M533.227 391.671L529.491 389.226L526.011 392.024L527.182 387.715L523.446 385.27L527.906 385.052L529.077 380.743L530.662 384.917L535.122 384.7L531.642 387.497L533.227 391.671Z" fill="#5A78FF" fill-opacity="0.8"/>
<path opacity="0.2" d="M519.939 433.404L517.81 429.479L513.419 430.29L516.495 427.053L514.366 423.128L518.395 425.052L521.47 421.815L520.885 426.241L524.914 428.166L520.524 428.977L519.939 433.404Z" fill="#5A78FF" fill-opacity="0.8"/>
<path opacity="0.1" d="M648.002 765.694L650.902 767.777L653.779 765.662L652.695 769.063L655.595 771.146L652.025 771.166L650.941 774.568L649.818 771.178L646.248 771.199L649.124 769.084L648.002 765.694Z" fill="#5A78FF" fill-opacity="0.8"/>
<path d="M772.821 704.703L763.125 690.316L746.446 695.091L757.133 681.424L747.437 667.037L763.738 672.978L774.425 659.311L773.812 676.649L790.113 682.59L773.434 687.365L772.821 704.703Z" fill="#9480FF" fill-opacity="0.4"/>
<path opacity="0.8" d="M489.485 857.668L488.319 846.025L476.885 843.537L487.598 838.829L486.431 827.187L494.218 835.92L504.93 831.213L499.031 841.318L506.818 850.051L495.385 847.563L489.485 857.668Z" fill="#5A78FF" fill-opacity="0.8"/>
<path opacity="0.6" d="M470.435 726.282L466.561 715.241L454.863 715.513L464.167 708.417L460.293 697.376L469.917 704.031L479.22 696.935L475.864 708.144L485.488 714.8L473.791 715.072L470.435 726.282Z" fill="#5A78FF" fill-opacity="0.8"/>
<path opacity="0.4" d="M335.074 946.312L329.644 940.067L322.027 943.301L326.289 936.207L320.859 929.962L328.922 931.823L333.184 924.73L333.906 932.973L341.969 934.834L334.352 938.068L335.074 946.312Z" fill="#5A78FF" fill-opacity="0.8"/>
<path opacity="0.4" d="M675.938 857.872L671.788 850.713L663.697 852.448L669.223 846.288L665.072 839.129L672.638 842.482L678.164 836.322L677.314 844.553L684.88 847.906L676.789 849.641L675.938 857.872Z" fill="#5A78FF" fill-opacity="0.8"/>
<path opacity="0.4" d="M831.278 490.61L830.487 482.373L822.408 480.58L829.998 477.282L829.206 469.045L834.688 475.244L842.278 471.946L838.076 479.075L843.558 485.274L835.479 483.481L831.278 490.61Z" fill="#5A78FF" fill-opacity="0.8"/>
<path opacity="0.2" d="M755.514 519.738L758.725 512.111L752.465 506.7L760.71 507.398L763.922 499.771L765.806 507.829L774.052 508.527L766.971 512.809L768.856 520.867L762.595 515.456L755.514 519.738Z" fill="#5A78FF" fill-opacity="0.8"/>
<path d="M336.844 683.04L347.182 702.114L368.517 698.176L353.571 713.902L363.91 732.977L344.334 723.622L329.388 739.349L332.236 717.84L312.661 708.486L333.996 704.548L336.844 683.04Z" fill="#5A78FF" fill-opacity="0.8"/>
<path opacity="0.8" d="M624.464 611.4L622.089 625.838L635.087 632.559L620.621 634.762L618.246 649.2L611.681 636.123L597.216 638.326L607.624 628.041L601.058 614.964L614.056 621.685L624.464 611.4Z" fill="#5A78FF" fill-opacity="0.8"/>
<path opacity="0.6" d="M425.962 1017.86L427.052 1032.45L441.266 1035.92L427.725 1041.47L428.815 1056.06L419.356 1044.89L405.816 1050.44L413.511 1037.99L404.052 1026.83L418.267 1030.3L425.962 1017.86Z" fill="#5A78FF" fill-opacity="0.8"/>
<path opacity="0.4" d="M900.502 509.135L905.029 518.44L915.278 517.011L907.827 524.191L912.354 533.497L903.222 528.629L895.77 535.81L897.578 525.621L888.446 520.754L898.695 519.324L900.502 509.135Z" fill="#5A78FF" fill-opacity="0.8"/>
<path opacity="0.4" d="M460.146 505.146L462.831 515.14L473.166 515.675L464.491 521.316L467.176 531.31L459.129 524.803L450.454 530.445L454.156 520.782L446.11 514.275L456.444 514.81L460.146 505.146Z" fill="#5A78FF" fill-opacity="0.8"/>
<path opacity="0.4" d="M153.202 898.148L151.481 908.352L160.653 913.143L150.417 914.659L148.695 924.863L144.09 915.595L133.853 917.111L141.244 909.868L136.639 900.601L145.812 905.391L153.202 898.148Z" fill="#5A78FF" fill-opacity="0.8"/>
<path opacity="0.2" d="M254.158 887.598L247.801 895.764L253.603 904.333L243.873 900.811L237.516 908.976L237.859 898.634L228.129 895.111L238.071 892.241L238.414 881.899L244.216 890.468L254.158 887.598Z" fill="#5A78FF" fill-opacity="0.8"/>
<path d="M265.669 474.665L267.83 483.25L276.663 483.848L269.165 488.556L271.326 497.142L264.532 491.466L257.034 496.175L260.332 487.959L253.538 482.283L262.371 482.881L265.669 474.665Z" fill="#5A78FF" fill-opacity="0.8"/>
<path d="M506.766 803.19L497.963 810.299L502.004 820.867L492.523 814.692L483.72 821.8L486.664 810.875L477.183 804.7L488.483 804.123L491.426 793.199L495.466 803.767L506.766 803.19Z" fill="#9480FF" fill-opacity="0.6"/>
<path opacity="0.4" d="M364.379 777.245L359.071 778.223L358.36 783.572L355.791 778.826L350.483 779.804L354.203 775.893L351.634 771.148L356.502 773.477L360.221 769.567L359.51 774.916L364.379 777.245Z" fill="#9480FF" fill-opacity="0.6"/>
<path opacity="0.2" d="M387.563 824.834L382.427 823.176L379.263 827.547L379.253 822.151L374.117 820.493L379.247 818.816L379.237 813.419L382.417 817.779L387.546 816.102L384.382 820.474L387.563 824.834Z" fill="#9480FF" fill-opacity="0.6"/>
<path opacity="0.4" d="M372.523 731.227L378.314 727.763L376.809 721.184L381.894 725.622L387.685 722.158L385.036 728.365L390.121 732.802L383.399 732.201L380.75 738.408L379.244 731.829L372.523 731.227Z" fill="#9480FF" fill-opacity="0.6"/>
<path opacity="0.1" d="M244.558 781.398L239.203 780.731L236.913 785.617L235.893 780.318L230.538 779.651L235.262 777.043L234.242 771.744L238.182 775.431L242.907 772.823L240.618 777.71L244.558 781.398Z" fill="#9480FF" fill-opacity="0.6"/>
<path opacity="0.8" d="M388.482 544.725L398.447 559.336L415.422 554.373L404.605 568.366L414.57 582.976L397.921 577.013L387.104 591.006L387.63 573.328L370.981 567.365L387.956 562.403L388.482 544.725Z" fill="#9480FF" fill-opacity="0.3"/>
<path opacity="0.6" d="M508.746 705.352L521.87 717.207L537.2 708.389L529.981 724.534L543.104 736.389L525.519 734.512L518.299 750.656L514.65 733.352L497.065 731.475L512.395 722.657L508.746 705.352Z" fill="#9480FF" fill-opacity="0.6"/>
<path opacity="0.4" d="M529.364 315.439L541.085 319.803L548.858 310.004L548.329 322.5L560.051 326.865L548.002 330.224L547.474 342.72L540.556 332.299L528.508 335.658L536.281 325.859L529.364 315.439Z" fill="#9480FF" fill-opacity="0.6"/>
<path opacity="0.4" d="M140.842 679.239L151.526 685.741L161.012 677.589L158.129 689.76L168.814 696.262L156.348 697.282L153.465 709.453L148.644 697.912L136.178 698.932L145.663 690.779L140.842 679.239Z" fill="#9480FF" fill-opacity="0.6"/>
<path opacity="0.6" d="M357.002 286.173L345.007 267.593L323.629 273.258L337.594 256.109L325.599 237.528L346.225 245.51L360.19 228.361L358.972 250.443L379.597 258.425L358.219 264.091L357.002 286.173Z" fill="#9480FF" fill-opacity="0.6"/>
<path opacity="0.8" d="M428.164 450.337L426.707 456.128L431.764 459.303L425.806 459.706L424.349 465.497L422.125 459.956L416.168 460.359L420.75 456.531L418.525 450.99L423.582 454.165L428.164 450.337Z" fill="#5A78FF" fill-opacity="0.8"/>
<path opacity="0.6" d="M414.544 516.699L414.491 522.67L420.152 524.566L414.457 526.36L414.404 532.33L410.938 527.469L405.243 529.263L408.796 524.464L405.33 519.602L410.991 521.498L414.544 516.699Z" fill="#5A78FF" fill-opacity="0.8"/>
<path opacity="0.4" d="M517.636 434.544L519.16 438.482L523.376 438.25L520.102 440.916L521.626 444.854L518.078 442.564L514.803 445.23L515.885 441.149L512.338 438.859L516.554 438.626L517.636 434.544Z" fill="#5A78FF" fill-opacity="0.8"/>
<path opacity="0.4" d="M338.708 417.935L339.459 422.09L343.643 422.659L339.924 424.658L340.676 428.813L337.625 425.893L333.905 427.892L335.74 424.089L332.689 421.169L336.873 421.738L338.708 417.935Z" fill="#5A78FF" fill-opacity="0.8"/>
<path opacity="0.4" d="M200.518 567.295L199.47 571.386L203.037 573.646L198.823 573.914L197.776 578.005L196.219 574.08L192.004 574.348L195.256 571.654L193.699 567.729L197.266 569.989L200.518 567.295Z" fill="#5A78FF" fill-opacity="0.8"/>
<path opacity="0.2" d="M241.929 566.442L239.066 569.546L241.134 573.228L237.297 571.464L234.434 574.568L234.926 570.374L231.089 568.611L235.229 567.782L235.721 563.588L237.788 567.27L241.929 566.442Z" fill="#5A78FF" fill-opacity="0.8"/>
<path d="M461.174 569.338L461.355 558.268L450.883 554.675L461.466 551.427L461.647 540.357L468.007 549.419L478.591 546.17L471.938 555.019L478.298 564.081L467.826 560.488L461.174 569.338Z" fill="#5A78FF" fill-opacity="0.8"/>
<path opacity="0.8" d="M471.005 122.526L474.887 125.755L479.157 123.061L477.285 127.75L481.167 130.979L476.129 130.648L474.257 135.337L473.015 130.444L467.977 130.113L472.248 127.419L471.005 122.526Z" fill="#5A78FF" fill-opacity="0.8"/>
<path opacity="0.4" d="M432.859 21.9794L436.419 22.258L437.784 18.9587L438.619 22.4302L442.179 22.7087L439.135 24.5757L439.97 28.0471L437.254 25.7295L434.211 27.5964L435.576 24.2971L432.859 21.9794Z" fill="#5A78FF" fill-opacity="0.8"/>
<path opacity="0.4" d="M429.005 176.089L432.447 177.035L434.412 174.054L434.575 177.62L438.018 178.567L434.676 179.825L434.839 183.392L432.611 180.602L429.269 181.86L431.233 178.878L429.005 176.089Z" fill="#5A78FF" fill-opacity="0.8"/>
<path d="M451.354 96.6863L455.642 86.4795L447.26 79.2472L458.292 80.1713L462.58 69.9645L465.111 80.7425L476.143 81.6666L466.674 87.4036L469.205 98.1816L460.822 90.9493L451.354 96.6863Z" fill="#9480FF" fill-opacity="0.6"/>
<path opacity="0.8" d="M320.71 545.152L324.352 538.634L319.278 533.156L326.602 534.605L330.244 528.087L331.129 535.501L338.454 536.949L331.676 540.083L332.562 547.497L327.488 542.019L320.71 545.152Z" fill="#5A78FF" fill-opacity="0.8"/>
<path opacity="0.6" d="M486.408 384.457L488.413 377.265L482.192 373.135L489.652 372.82L491.657 365.627L494.263 372.624L501.723 372.309L495.873 376.949L498.478 383.946L492.257 379.817L486.408 384.457Z" fill="#5A78FF" fill-opacity="0.8"/>
<path opacity="0.4" d="M170.502 546.411L169.941 541.16L164.774 540.07L169.595 537.915L169.035 532.664L172.574 536.582L177.395 534.427L174.762 539.004L178.302 542.923L173.135 541.833L170.502 546.411Z" fill="#5A78FF" fill-opacity="0.8"/>
<path opacity="0.4" d="M381.168 624.62L381.611 619.358L376.744 617.311L381.885 616.106L382.328 610.844L385.062 615.362L390.204 614.157L386.752 618.153L389.487 622.671L384.62 620.623L381.168 624.62Z" fill="#5A78FF" fill-opacity="0.8"/>
<path opacity="0.2" d="M546.3 476.744L550.766 473.926L549.466 468.808L553.526 472.185L557.992 469.367L556.035 474.271L560.095 477.648L554.826 477.303L552.869 482.207L551.569 477.089L546.3 476.744Z" fill="#5A78FF" fill-opacity="0.8"/>
<path opacity="0.1" d="M164.151 653.772L161.92 657.357L164.64 660.587L160.541 659.572L158.31 663.157L158.008 658.946L153.909 657.931L157.821 656.342L157.519 652.131L160.239 655.36L164.151 653.772Z" fill="#5A78FF" fill-opacity="0.8"/>
<path opacity="0.8" d="M43.2584 473.878L56.9067 471.593L58.9517 457.907L65.3419 470.181L78.9902 467.897L69.2912 477.767L75.6814 490.042L63.2969 483.868L53.5979 493.738L55.6429 480.052L43.2584 473.878Z" fill="#5A78FF" fill-opacity="0.8"/>
<path opacity="0.6" d="M196.82 441.155L209.547 435.723L208.314 421.94L217.413 432.365L230.141 426.933L223.037 438.809L232.136 449.235L218.647 446.148L211.543 458.024L210.31 444.241L196.82 441.155Z" fill="#5A78FF" fill-opacity="0.8"/>
<path opacity="0.4" d="M57.5508 693.924L65.6756 688.468L62.9974 679.055L70.697 685.096L78.8218 679.64L75.4556 688.83L83.1552 694.871L73.3752 694.509L70.009 703.699L67.3308 694.286L57.5508 693.924Z" fill="#5A78FF" fill-opacity="0.8"/>
<path opacity="0.2" d="M462.781 761.472L472.031 764.668L477.929 756.858L477.748 766.643L486.999 769.839L477.637 772.69L477.456 782.475L471.851 774.453L462.489 777.305L468.387 769.495L462.781 761.472Z" fill="#5A78FF" fill-opacity="0.8"/>
<path d="M265.276 293.248L241.603 303.147L243.702 328.719L226.973 309.264L203.301 319.163L216.634 297.241L199.905 277.785L224.874 283.692L238.207 261.769L240.306 287.342L265.276 293.248Z" fill="#5A78FF" fill-opacity="0.8"/>
<path opacity="0.8" d="M344.742 613.723L327.518 612.045L320.601 627.908L316.873 611.009L299.65 609.331L314.57 600.565L310.843 583.666L323.791 595.146L338.711 586.38L331.793 602.242L344.742 613.723Z" fill="#5A78FF" fill-opacity="0.8"/>
<path opacity="0.4" d="M456.977 411.776L445.393 415.724L445.567 427.961L438.233 418.164L426.649 422.111L433.7 412.108L426.366 402.311L438.058 405.926L445.11 395.923L445.285 408.161L456.977 411.776Z" fill="#5A78FF" fill-opacity="0.8"/>
<path opacity="0.2" d="M-10.4064 198.505L-20.538 191.639L-30.1981 199.154L-26.7997 187.396L-36.9313 180.531L-24.6993 180.13L-21.3009 168.373L-17.1396 179.882L-4.90762 179.481L-14.5677 186.995L-10.4064 198.505Z" fill="#5A78FF" fill-opacity="0.8"/>
<path opacity="0.1" d="M840.772 307.013L842.5 298.92L835.337 294.777L843.567 293.919L845.295 285.826L848.654 293.388L856.885 292.53L850.73 298.062L854.09 305.625L846.927 301.481L840.772 307.013Z" fill="#5A78FF" fill-opacity="0.8"/>
</g>
<g opacity="0.2">
<g opacity="0.7">
<path d="M241.117 222.636C238.496 219.202 233.187 222.584 235.19 226.411L262.754 279.066C264.23 281.886 263.458 285.359 260.925 287.287L213.622 323.289C210.18 325.908 213.57 331.23 217.399 329.218L270.021 301.567C272.839 300.086 276.313 300.854 278.245 303.384L314.313 350.622C316.934 354.055 322.243 350.674 320.24 346.846L292.676 294.192C291.199 291.372 291.972 287.898 294.505 285.971L341.808 249.969C345.25 247.349 341.86 242.028 338.031 244.04L285.409 271.691C282.591 273.172 279.117 272.404 277.185 269.874L241.117 222.636Z" stroke="#D680FF" stroke-width="3"/>
</g>
<g opacity="0.9">
<path d="M244.974 380.842C244.398 380.622 243.828 381.17 244.026 381.754L256.47 418.501C256.751 419.33 256.731 420.233 256.414 421.049L242.3 457.337C242.075 457.916 242.633 458.497 243.221 458.294L280.024 445.583C280.852 445.297 281.754 445.312 282.572 445.625L318.814 459.471C319.391 459.691 319.96 459.143 319.762 458.558L307.318 421.812C307.037 420.982 307.057 420.08 307.374 419.264L308.568 419.728L307.374 419.264L321.488 382.976C321.713 382.396 321.155 381.816 320.567 382.019L283.764 394.729C282.936 395.015 282.034 395 281.216 394.688L244.974 380.842Z" stroke="#5A78FF" stroke-width="3"/>
</g>
<path d="M124.378 234.178L118.665 101.942L108.317 233.897C108.009 237.827 103.788 240.166 100.292 238.344L-17.0843 177.173L92.0179 252.112C95.2673 254.344 95.1827 259.169 91.857 261.285L-19.8071 332.351L99.6432 275.335C103.201 273.637 107.337 276.123 107.507 280.061L113.22 412.298L123.568 280.343C123.876 276.413 128.097 274.074 131.593 275.896L248.969 337.067L139.867 262.128C136.618 259.896 136.702 255.071 140.028 252.954L251.692 181.889L132.242 238.905C128.684 240.603 124.548 238.117 124.378 234.178Z" stroke="#D0FFF1" stroke-width="3"/>
<path d="M145.594 66.6025C144.43 64.9419 141.864 66.2928 142.574 68.1923L157.06 106.943C158.154 109.868 156.164 113.035 153.049 113.303L112.012 116.843C110.031 117.014 109.858 119.917 111.881 120.264L152.598 127.26C155.661 127.786 157.394 131.078 156.094 133.901L138.809 171.425C137.951 173.29 140.442 174.79 141.704 173.254L167.854 141.43C169.839 139.014 173.575 139.167 175.367 141.724L199.109 175.604C200.273 177.264 202.84 175.913 202.13 174.014L187.643 135.263C186.55 132.338 188.539 129.171 191.654 128.903L232.691 125.363C234.672 125.192 234.846 122.289 232.823 121.942L233.077 120.463L232.823 121.942L192.106 114.946C189.043 114.42 187.31 111.128 188.61 108.305L205.894 70.7808C206.753 68.9164 204.262 67.4157 202.999 68.9519L176.85 100.776C174.865 103.192 171.128 103.039 169.336 100.482L145.594 66.6025Z" stroke="#5A78FF" stroke-opacity="0.6" stroke-width="3"/>
<path d="M158.396 -18.1919C156.494 -20.2103 153.115 -19.3452 152.416 -16.6612L141.688 24.5865C140.824 27.9099 137.532 29.9951 134.158 29.3563L92.038 21.3809C89.3054 20.8635 87.0768 23.5661 88.1062 26.1515L103.791 65.5407C105.071 68.7556 103.62 72.4111 100.483 73.8723L61.6866 91.945C59.1525 93.1254 58.9336 96.6454 61.3028 98.1311L97.3167 120.714C100.262 122.561 101.243 126.393 99.5475 129.428L78.8152 166.538C77.4513 168.979 79.3347 171.961 82.1243 171.779L124.833 168.986C128.286 168.76 131.315 171.268 131.737 174.703L136.909 216.784C137.248 219.546 140.501 220.845 142.649 219.078L175.756 191.844C178.408 189.663 182.297 189.91 184.652 192.409L213.88 223.428C215.782 225.446 219.161 224.581 219.859 221.897L230.587 180.649C231.452 177.326 234.743 175.241 238.117 175.879L280.238 183.855C282.97 184.372 285.199 181.67 284.17 179.084L268.485 139.695C267.205 136.48 268.656 132.825 271.792 131.363L310.589 113.291C313.123 112.11 313.342 108.59 310.973 107.105L274.959 84.522C272.013 82.6749 271.032 78.843 272.728 75.8077L293.461 38.6978C294.824 36.2565 292.941 33.2747 290.151 33.4571L247.443 36.2501C243.99 36.4759 240.961 33.9672 240.539 30.5326L235.367 -11.5478C235.028 -14.3098 231.774 -15.6091 229.627 -13.8422L196.52 13.3915C193.868 15.5731 189.979 15.326 187.624 12.8268L158.396 -18.1919Z" stroke="#9BE7D8" stroke-width="3"/>
<path d="M383.997 58.0972C383.832 54.9043 379.552 53.9818 378.086 56.8228L341.421 127.855C340.418 129.798 338.458 131.059 336.275 131.168L256.196 135.137C252.995 135.295 252.07 139.59 254.921 141.053L326.252 177.662C328.196 178.66 329.463 180.617 329.576 182.8L333.719 262.63C333.885 265.823 338.165 266.745 339.631 263.904L376.296 192.872C377.299 190.929 379.259 189.667 381.442 189.559L461.52 185.59C464.721 185.431 465.647 181.137 462.796 179.674L391.465 143.065C389.52 142.067 388.254 140.11 388.141 137.927L383.997 58.0972Z" stroke="#FEC1EE" stroke-width="3"/>
<g opacity="0.5">
<path d="M360.577 327.494L357.871 323.086L360.023 327.789C361.515 331.048 359.195 334.771 355.612 334.868L350.441 335.008L355.591 335.496C359.159 335.833 361.223 339.705 359.516 342.855L357.052 347.404L360.049 343.187C362.125 340.267 366.51 340.414 368.385 343.468L371.092 347.876L368.939 343.173C367.448 339.914 369.768 336.191 373.35 336.094L378.521 335.954L373.371 335.466C369.804 335.129 367.739 331.258 369.446 328.107L371.911 323.558L368.913 327.775C366.837 330.696 362.452 330.548 360.577 327.494Z" stroke="#FFFF60" stroke-width="2"/>
</g>
<path d="M59.8483 114.757L68.6841 99.1843L58.027 113.572C55.8939 116.452 51.5129 116.218 49.6979 113.128L40.6295 97.6899L47.761 114.113C49.1884 117.4 46.7958 121.078 43.2122 121.104L25.308 121.239L43.0966 123.274C46.6571 123.682 48.6455 127.592 46.8769 130.709L38.0411 146.282L48.6983 131.894C50.8313 129.015 55.2123 129.248 57.0273 132.338L66.0957 147.776L58.9642 131.353C57.5368 128.066 59.9294 124.389 63.513 124.362L81.4172 124.227L63.6286 122.192C60.0681 121.785 58.0797 117.874 59.8483 114.757Z" stroke="#FFFF60" stroke-width="2"/>
<path d="M111.244 222.32C109.704 222.581 108.2 221.69 107.686 220.216C107.193 218.801 105.075 219.344 105.322 220.821C105.579 222.361 104.689 223.864 103.212 224.377C101.818 224.86 102.352 226.946 103.807 226.7C105.348 226.44 106.852 227.33 107.366 228.805C107.859 230.219 109.977 229.677 109.73 228.2C109.472 226.659 110.363 225.156 111.839 224.644C113.234 224.16 112.7 222.075 111.244 222.32Z" stroke="#5A78FF" stroke-width="2"/>
<path d="M228.998 365.174C226.716 366.16 224.121 364.704 223.774 362.241C223.486 360.19 220.51 360.226 220.271 362.284C219.985 364.754 217.426 366.273 215.12 365.342C213.199 364.566 211.742 367.161 213.405 368.396C215.401 369.88 215.437 372.855 213.478 374.386C211.845 375.662 213.364 378.221 215.266 377.399C217.548 376.412 220.143 377.869 220.49 380.331C220.778 382.383 223.754 382.347 223.993 380.289C224.279 377.819 226.838 376.3 229.144 377.231C231.065 378.007 232.522 375.412 230.859 374.176C228.863 372.693 228.827 369.717 230.786 368.186C232.419 366.91 230.9 364.352 228.998 365.174Z" stroke="#FEC1EE" stroke-opacity="0.8" stroke-width="2"/>
<g opacity="0.3">
<path d="M264.76 193.131C262.907 193.043 261.646 191.215 262.222 189.452C262.517 188.549 261.285 187.964 260.771 188.763C259.769 190.323 257.556 190.501 256.317 189.121C255.682 188.414 254.559 189.188 254.994 190.033C255.845 191.681 254.892 193.687 253.077 194.069C252.147 194.265 252.257 195.625 253.205 195.67C255.058 195.759 256.319 197.586 255.743 199.35C255.448 200.252 256.68 200.838 257.193 200.039C258.196 198.478 260.409 198.3 261.648 199.681C262.283 200.388 263.406 199.613 262.971 198.769C262.12 197.12 263.073 195.115 264.888 194.732C265.818 194.536 265.708 193.176 264.76 193.131Z" stroke="#D0FFF1" stroke-width="2"/>
</g>
<path d="M138.941 15.539C137.618 18.2672 134.018 19.1732 131.561 17.4133C132.063 20.3934 129.669 23.2311 126.637 23.2219C128.74 25.335 128.469 28.9828 126.052 30.7533C128.979 31.22 130.898 34.2929 130.032 37.1277C132.684 35.7335 136.08 37.0918 137.056 39.9088C138.379 37.1806 141.98 36.2746 144.436 38.0346C143.934 35.0544 146.329 32.2168 149.36 32.226C147.258 30.1128 147.528 26.4651 149.945 24.6945C147.018 24.2278 145.099 21.155 145.965 18.3201C143.313 19.7143 139.917 18.3561 138.941 15.539Z" stroke="#BDC9FF" stroke-width="2"/>
<g opacity="0.4">
<path d="M305.451 303.578C302.744 304.944 299.332 303.478 298.448 300.588C297.038 303.261 293.413 304.063 291.009 302.215C291.397 305.171 288.968 307.906 285.973 307.846C288.016 309.994 287.676 313.6 285.267 315.328C288.221 315.829 290.095 318.97 289.161 321.801C291.868 320.436 295.28 321.901 296.164 324.791C297.573 322.118 301.199 321.316 303.603 323.164C303.214 320.208 305.643 317.473 308.639 317.533C306.596 315.386 306.936 311.779 309.344 310.051C306.391 309.55 304.516 306.409 305.451 303.578Z" stroke="#D0FFF1" stroke-width="2"/>
</g>
<path d="M130.345 292.149C129.297 294.245 126.218 294.076 125.445 291.836C125.363 291.599 125.239 291.495 125.129 291.443C125.002 291.383 124.832 291.364 124.652 291.41C124.473 291.455 124.333 291.554 124.25 291.668C124.179 291.766 124.12 291.917 124.162 292.164C124.561 294.5 121.942 296.128 120.015 294.793C119.811 294.652 119.646 294.638 119.519 294.661C119.376 294.688 119.223 294.774 119.104 294.915C118.985 295.055 118.931 295.212 118.931 295.343C118.931 295.455 118.967 295.604 119.145 295.776C120.846 297.419 119.7 300.287 117.349 300.334C117.103 300.339 116.965 300.424 116.879 300.513C116.781 300.616 116.71 300.772 116.697 300.954C116.684 301.135 116.732 301.293 116.809 301.399C116.875 301.489 116.992 301.588 117.235 301.623C119.573 301.954 120.34 304.95 118.449 306.364C118.252 306.511 118.197 306.654 118.183 306.765C118.166 306.895 118.2 307.056 118.299 307.209C118.397 307.362 118.535 307.465 118.67 307.508C118.788 307.545 118.95 307.554 119.168 307.44C121.252 306.35 123.635 308.315 122.933 310.574C122.86 310.81 122.9 310.958 122.953 311.056C123.017 311.171 123.139 311.283 123.311 311.349C123.483 311.415 123.658 311.417 123.797 311.371C123.919 311.331 124.057 311.24 124.168 311.018C125.217 308.921 128.296 309.09 129.069 311.33C129.151 311.567 129.275 311.671 129.385 311.723C129.511 311.783 129.682 311.802 129.861 311.757C130.04 311.711 130.181 311.612 130.263 311.498C130.334 311.4 130.393 311.249 130.351 311.002C129.953 308.666 132.572 307.038 134.499 308.373C134.703 308.514 134.868 308.528 134.994 308.505C135.138 308.478 135.29 308.392 135.409 308.252C135.528 308.111 135.582 307.954 135.583 307.823C135.583 307.711 135.546 307.562 135.369 307.39C133.668 305.747 134.813 302.879 137.164 302.832C137.411 302.828 137.549 302.743 137.634 302.653C137.732 302.55 137.803 302.394 137.817 302.213C137.83 302.031 137.781 301.873 137.704 301.767C137.639 301.677 137.521 301.578 137.278 301.544C134.94 301.212 134.173 298.217 136.065 296.802C136.261 296.655 136.316 296.512 136.331 296.401C136.347 296.271 136.314 296.11 136.215 295.957C136.116 295.804 135.979 295.701 135.844 295.658C135.726 295.621 135.564 295.612 135.345 295.727C133.261 296.816 130.878 294.851 131.58 292.592C131.654 292.356 131.614 292.208 131.56 292.11C131.497 291.995 131.374 291.884 131.202 291.818C131.03 291.752 130.855 291.749 130.716 291.795C130.595 291.835 130.456 291.926 130.345 292.149Z" stroke="#FFFF60" stroke-width="2"/>
</g>
</g>
</svg>
